<?xml version="1.0" encoding="utf-8"?>
<!-- Generator: Adobe Illustrator 16.0.0, SVG Export Plug-In . SVG Version: 6.00 Build 0)  -->
<!DOCTYPE svg PUBLIC "-//W3C//DTD SVG 1.1//EN" "http://www.w3.org/Graphics/SVG/1.1/DTD/svg11.dtd">
<svg version="1.1" id="Layer_1" xmlns="http://www.w3.org/2000/svg" xmlns:xlink="http://www.w3.org/1999/xlink" x="0px" y="0px"
	 width="1024px" height="1024px" viewBox="0 0 1024 1024" enable-background="new 0 0 1024 1024" xml:space="preserve">
<g>
	<g>
		<linearGradient id="SVGID_1_" gradientUnits="userSpaceOnUse" x1="246.4619" y1="512" x2="777.5381" y2="512">
			<stop  offset="0.0051" style="stop-color:#C349EA"/>
			<stop  offset="1" style="stop-color:#FF7A57"/>
		</linearGradient>
		<path fill="url(#SVGID_1_)" d="M359.922,225.304c31.629,11.612,62.708,24.679,94.105,36.902
			c34.355,13.566,68.058,29.041,99.713,48.137c18.976,11.243,37.412,23.484,54.485,37.479c3.113,2.502,6.305,4.937,8.938,7.957
			c-0.603-3.853-1.651-7.622-1.962-11.527c-5.59-25.22-14.58-49.762-27.242-72.316c-2.761-5.66-6.605-10.71-9.427-16.327
			c5.78,3.82,11.209,8.155,16.626,12.473c26.521,20.8,51.871,43.449,73.058,69.762c9.592,12.129,18.615,24.714,26.657,37.926
			c10.365,16.318,17.479,34.434,22.959,52.902c11.303-8.138,22.029-17.101,32.412-26.399c9.075-8.267,17.772-16.955,27.294-24.731
			c-2.228,24-6.313,47.784-10.684,71.465c-5.059,26.047-11.362,51.844-18.435,77.409c-0.68,3.131,0.413,6.271,0.705,9.394
			c1.531,16.034,2.839,32.109,2.529,48.23c0.035,10.081-1.118,20.103-1.918,30.142c-1.66,14.459-5.402,28.576-9.693,42.451
			c-8.284,26.82-22.021,52.059-40.869,72.926c-9.101,10.711-19.422,20.336-30.527,28.93c-18.013,14.7-39.646,24.232-61.592,31.44
			c-10.271,2.795-20.549,6.046-31.207,6.94c-14.727,2.435-29.746,2.039-44.593,1.084c-4.645-0.396-9.213-1.453-13.893-1.54
			c-33.951-5.384-66.449-18.923-94.672-38.467c-24.335-16.594-44.713-38.64-60.498-63.432
			c-8.232-13.419-14.847-27.775-20.576-42.416c-10.356-28.894-13.9-59.844-13.006-90.415c0.095-25.866,6.366-51.173,13.901-75.757
			c-11.906,10.21-24.499,19.578-36.946,29.108c-12.421,9.334-24.886,18.606-37.693,27.397c0.876-3.32,2.796-6.22,4.309-9.265
			c18.813-34.167,38.132-68.119,60.076-100.393c-9.987-13.746-19.604-27.758-29.711-41.419
			c-18.056-24.653-36.662-48.91-56.085-72.497c55.096,11.99,109.976,24.894,165.218,36.231c7.509,1.436,15.147,2.434,22.442,4.869
			c-3.862-3.562-5.686-8.568-8.094-13.093c-19.527-37.796-39.629-75.3-60.618-112.306
			C363.638,231.438,361.788,228.366,359.922,225.304z M438.166,294.636c3.629,4.508,6.322,9.643,9.229,14.633
			c8.456,15.044,17.273,29.891,25.247,45.203c15.166,29.418,30.115,58.975,43.827,89.099c-14.563-11.785-31.19-20.825-48.567-27.698
			c-18.588-7.69-37.581-14.52-57.09-19.493c-18.082-5.11-36.516-8.842-54.924-12.567c-3.931-0.474-7.699-1.694-11.483-2.795
			c10.167,9.806,18.322,21.418,26.674,32.748c11.148,15.062,21.858,30.442,32.438,45.899c8.636,13.006,17.832,25.712,25.248,39.475
			c-3.811-2.142-6.994-5.187-10.563-7.69c-13.222-9.702-26.099-20.068-40.593-27.844c-3.002,12.73-7.321,25.134-9.97,37.96
			c-2.994,13.316-5.703,26.743-6.959,40.352c-2.425,19.699-3.062,39.724-0.749,59.457c3.244,27.07,10.994,53.857,24.877,77.443
			c9.875,16.757,22.675,31.664,36.989,44.782c23.991,22.158,53.582,37.865,84.971,46.614c12.704,3.681,25.858,5.935,39.104,6.09
			c43.706,1.108,87.404-15.527,119.662-44.971c21.659-19.69,38.469-44.602,48.678-72.033c5.359-13.702,8.646-28.111,11.184-42.571
			c0.369-7.2,1.867-14.28,1.944-21.505c0.747-16.885,0.731-33.9-1.592-50.666c0.103-8.507-4.31-16.996-1.472-25.41
			c4.921-18.236,10.159-36.403,14.046-54.897c1.102-4.43,1.196-9.041,2.366-13.462c-12.842,10.839-26.261,21.222-37.09,34.176
			c-0.138-11.518-1.386-23.096-4.784-34.141c-1.72-7.277-4.205-14.365-7.148-21.23c-6.563-15.931-14.598-31.242-23.75-45.831
			c-8.876-13.849-18.442-27.234-28.016-40.602c1.78,6.503,1.565,13.299,2.58,19.922c0.825,5.661,0.37,11.389,0.81,17.075
			c0.722,10.874,0.326,21.781-0.207,32.662c0.043,6.486-0.456,13.032-2.021,19.338c-3.786-7.373-8.86-13.971-14.176-20.284
			c-10.744-12.232-23.002-23.011-35.716-33.127c-14.091-11.389-29.187-21.454-44.515-31.079
			c-27.019-16.37-55.13-30.993-84.24-43.268C454.415,300.924,445.95,298.584,438.166,294.636z"/>
	</g>
	<linearGradient id="SVGID_2_" gradientUnits="userSpaceOnUse" x1="426.52" y1="590.0557" x2="569.8945" y2="590.0557">
		<stop  offset="0.0051" style="stop-color:#C349EA"/>
		<stop  offset="1" style="stop-color:#FF7A57"/>
	</linearGradient>
	<path fill="url(#SVGID_2_)" d="M427.516,547.086c-0.491-4.018-1.205-8.033-0.938-12.094c5.351,4.387,11.243,8.051,16.929,11.974
		c30.786,20.508,61.289,41.427,92.118,61.856c11.44,7.484,22.357,15.803,34.27,22.563c-18.622,9.506-39.955,16.688-61.03,12.526
		c-18.236-2.865-36.214-10.237-49.573-23.261c-10.563-9.703-19.071-21.771-24.017-35.277
		C430.604,573.133,428.858,560.041,427.516,547.086z"/>
	<linearGradient id="SVGID_3_" gradientUnits="userSpaceOnUse" x1="613.1025" y1="601.0156" x2="704.8125" y2="601.0156">
		<stop  offset="0.0051" style="stop-color:#C349EA"/>
		<stop  offset="1" style="stop-color:#FF7A57"/>
	</linearGradient>
	<path fill="url(#SVGID_3_)" d="M648.182,603.988c18.425-14.719,37.273-28.895,56.213-42.933c1.23,12.129-0.249,24.507-4.489,35.947
		c-4.955,14.804-14.287,28.619-27.741,36.895c-10.142,6.356-22.666,8.257-34.399,6.399c-8.902-1.075-17.075-5.093-24.662-9.669
		C625.42,622.604,636.518,612.908,648.182,603.988z"/>
</g>
</svg>
