<?xml version="1.0" encoding="UTF-8"?>
<svg version="1.1" xmlns="http://www.w3.org/2000/svg" width="64" height="64">
<path d="M0 0 C2.96555258 0.59541535 5.87823583 1.25817394 8.8125 1.984375 C10.13858276 2.30876556 10.13858276 2.30876556 11.49145508 2.63970947 C13.3652049 3.10070551 15.2381512 3.56497765 17.11035156 4.03222656 C19.98445916 4.74613974 22.86296325 5.43986671 25.7421875 6.1328125 C27.55759762 6.58209887 29.37271254 7.03258008 31.1875 7.484375 C32.05415283 7.69076599 32.92080566 7.89715698 33.8137207 8.10980225 C35.90316442 8.6421893 37.95737542 9.30942355 40 10 C41.39412274 14.18236822 40.08466093 17.44740571 38.98046875 21.5703125 C38.65252068 22.82556229 38.65252068 22.82556229 38.31794739 24.10617065 C37.85368714 25.87411047 37.38520785 27.64094693 36.9128418 29.40673828 C36.18928126 32.11832462 35.48343188 34.83409411 34.77929688 37.55078125 C34.32657736 39.26590423 33.87283603 40.98075788 33.41796875 42.6953125 C33.20641647 43.51194366 32.9948642 44.32857483 32.77690125 45.16995239 C32.24609925 47.13099169 31.63077826 49.06879709 31 51 C27.61169769 52.69415115 24.07069398 50.89604833 20.5625 49.9453125 C19.72662354 49.72430878 18.89074707 49.50330505 18.02954102 49.27560425 C16.26002043 48.8063625 14.49140388 48.33370044 12.72363281 47.85791016 C10.01294619 47.12848373 7.29977233 46.40902101 4.5859375 45.69140625 C2.86963711 45.23495574 1.15348607 44.77794324 -0.5625 44.3203125 C-1.37710693 44.10359894 -2.19171387 43.88688538 -3.03100586 43.66360474 C-8.76510737 42.11744632 -8.76510737 42.11744632 -11 41 C-8.74762061 31.12927857 -6.34848946 21.30189771 -3.8125 11.5 C-3.55065918 10.47898193 -3.28881836 9.45796387 -3.01904297 8.40600586 C-2.7717041 7.45733643 -2.52436523 6.50866699 -2.26953125 5.53125 C-2.04885986 4.68111328 -1.82818848 3.83097656 -1.60083008 2.95507812 C-1 1 -1 1 0 0 Z M2 4 C-1.42034651 15.5936636 -4.72351148 27.11832747 -7 39 C4.5936636 42.42034651 16.11832747 45.72351148 28 48 C31.42034651 36.4063364 34.72351148 24.88167253 37 13 C25.4063364 9.57965349 13.88167253 6.27648852 2 4 Z " fill="#7046FF" transform="translate(17,6)"/>
<path d="M0 0 C4.71403788 0.47939368 8.66579301 0.96834048 13 3 C12.52060632 7.71403788 12.03165952 11.66579301 10 16 C5.28596212 15.52060632 1.33420699 15.03165952 -3 13 C-2.52060632 8.28596212 -2.03165952 4.33420699 0 0 Z " fill="#B5B7FF" transform="translate(27,24)"/>
<path d="M0 0 C4.71403788 0.47939368 8.66579301 0.96834048 13 3 C13 4.32 13 5.64 13 7 C8.05 7 3.1 7 -2 7 C-1.34 4.69 -0.68 2.38 0 0 Z " fill="#96BDFF" transform="translate(27,24)"/>
<path d="M0 0 C4.71403788 0.47939368 8.66579301 0.96834048 13 3 C13 3.33 13 3.66 13 4 C8.38 4 3.76 4 -1 4 C-0.67 2.68 -0.34 1.36 0 0 Z " fill="#7CC4FF" transform="translate(27,24)"/>
<path d="M0 0 C4.62 0 9.24 0 14 0 C13.67 1.32 13.34 2.64 13 4 C8.28596212 3.52060632 4.33420699 3.03165952 0 1 C0 0.67 0 0.34 0 0 Z " fill="#D3AEFF" transform="translate(24,36)"/>
</svg>
