<?xml version="1.0" encoding="UTF-8"?>
<svg version="1.1" xmlns="http://www.w3.org/2000/svg" width="64" height="64">
<path d="M0 0 C6.6 0 13.2 0 20 0 C20 1.65 20 3.3 20 5 C22.97 5 25.94 5 29 5 C29.23368566 9.01984283 29.3748607 13.03793087 29.5 17.0625 C29.60054687 18.7630957 29.60054687 18.7630957 29.703125 20.49804688 C29.8963057 28.78066953 29.8963057 28.78066953 27.32202148 32.28271484 C25.29466545 34.0815206 23.29751061 35.56680488 21 37 C20.30406738 37.4522998 19.60813477 37.90459961 18.89111328 38.37060547 C14.44859356 41.11441004 10.97548468 41.26440611 5.8828125 40.45703125 C4 40 4 40 2 39 C1.7525 39.763125 1.505 40.52625 1.25 41.3125 C-0.13563292 44.29161079 -1.11046627 45.47024685 -4 47 C-6.25 46.6875 -6.25 46.6875 -8 46 C-8.75 43.75 -8.75 43.75 -9 41 C-7.11286577 38.45962699 -5.59741091 37.23320858 -2.6484375 36.08203125 C2.45120265 33.99854995 6.77162305 31.21063904 9 26 C10.42830906 18.11723308 10.19769252 9.98242661 10 2 C7.36 2 4.72 2 2 2 C2 3.65 2 5.3 2 7 C-0.97 7 -3.94 7 -7 7 C-7 12.61 -7 18.22 -7 24 C-7.66 24.33 -8.32 24.66 -9 25 C-9 18.4 -9 11.8 -9 5 C-6.03 5 -3.06 5 0 5 C0 3.35 0 1.7 0 0 Z M9 31 C7.30911778 32.97956942 5.64169528 34.97945196 4 37 C6.97 37.495 6.97 37.495 10 38 C10 35.69 10 33.38 10 31 C9.67 31 9.34 31 9 31 Z " fill="#A5B8FF" transform="translate(22,12)"/>
<path d="M0 0 C9.24 0 18.48 0 28 0 C28.495 2.475 28.495 2.475 29 5 C30.11375 4.95875 31.2275 4.9175 32.375 4.875 C36 5 36 5 38 7 C38.49238532 11.02227256 38.49945085 15.0515754 38.53540039 19.1015625 C38.5621257 21.09705238 38.63717275 23.09170559 38.71289062 25.0859375 C38.82825027 35.94073107 38.82825027 35.94073107 34.79296875 40.71484375 C32.00558357 43.33493631 29.10208085 45.57698971 25.75 47.4375 C24.91984375 47.91058594 24.0896875 48.38367187 23.234375 48.87109375 C18.85719077 51.08264312 14.83165695 51.41803068 10 51 C7.5 50 7.5 50 6 49 C6.33 48.01 6.66 47.02 7 46 C7.59425781 46.14179687 8.18851563 46.28359375 8.80078125 46.4296875 C16.71078517 47.83208322 21.53025476 45.50795153 28 41 C31.19091847 38.47026283 33.46401276 35.79914872 35 32 C35.27411405 29.29177736 35.27411405 29.29177736 35.1953125 26.359375 C35.18564453 24.75449219 35.18564453 24.75449219 35.17578125 23.1171875 C35.15902344 22.00601562 35.14226563 20.89484375 35.125 19.75 C35.11597656 18.62335937 35.10695312 17.49671875 35.09765625 16.3359375 C35.07410658 13.55707635 35.0412168 10.7786461 35 8 C33.72125 7.9175 32.4425 7.835 31.125 7.75 C28.9453125 7.609375 28.9453125 7.609375 27 7 C26.34 5.68 25.68 4.36 25 3 C17.74 3 10.48 3 3 3 C2.34 4.32 1.68 5.64 1 7 C-1.64 7.33 -4.28 7.66 -7 8 C-7.33 15.59 -7.66 23.18 -8 31 C-8.66 31.33 -9.32 31.66 -10 32 C-10.05784708 27.87505849 -10.09354407 23.75022056 -10.125 19.625 C-10.14175781 18.449375 -10.15851562 17.27375 -10.17578125 16.0625 C-10.18222656 14.94101562 -10.18867188 13.81953125 -10.1953125 12.6640625 C-10.20578613 11.62717285 -10.21625977 10.5902832 -10.22705078 9.52197266 C-10 7 -10 7 -8 5 C-4.375 4.875 -4.375 4.875 -1 5 C-0.67 3.35 -0.34 1.7 0 0 Z " fill="#405BFF" transform="translate(18,7)"/>
<path d="M0 0 C6.6 0 13.2 0 20 0 C20 1.65 20 3.3 20 5 C22.97 5 25.94 5 29 5 C29.23368566 9.01984283 29.3748607 13.03793087 29.5 17.0625 C29.60054687 18.7630957 29.60054687 18.7630957 29.703125 20.49804688 C29.8963057 28.78066953 29.8963057 28.78066953 27.32202148 32.28271484 C25.29466545 34.0815206 23.29751061 35.56680488 21 37 C20.30390625 37.45221924 19.6078125 37.90443848 18.890625 38.37036133 C13.85799306 41.48013536 9.65745958 41.20482936 4 40 C4 39.01 4 38.02 4 37 C5.670625 37.433125 5.670625 37.433125 7.375 37.875 C13.30123746 38.65532308 17.36280455 35.31228246 22 32 C23.04220703 31.3646936 23.04220703 31.3646936 24.10546875 30.71655273 C26.2031724 29.14404168 26.2031724 29.14404168 26.54589844 26.63989258 C26.5668457 25.73392334 26.58779297 24.8279541 26.609375 23.89453125 C26.64160156 22.91162109 26.67382812 21.92871094 26.70703125 20.91601562 C26.72121094 19.89185547 26.73539063 18.86769531 26.75 17.8125 C26.77964844 16.77673828 26.80929688 15.74097656 26.83984375 14.67382812 C26.91057245 12.11580688 26.96325257 9.55869842 27 7 C24.03 7 21.06 7 18 7 C18 5.35 18 3.7 18 2 C12.72 2 7.44 2 2 2 C2 3.65 2 5.3 2 7 C-0.97 7 -3.94 7 -7 7 C-7 12.61 -7 18.22 -7 24 C-7.66 24.33 -8.32 24.66 -9 25 C-9 18.4 -9 11.8 -9 5 C-6.03 5 -3.06 5 0 5 C0 3.35 0 1.7 0 0 Z " fill="#5454FF" transform="translate(22,12)"/>
<path d="M0 0 C1.32 0 2.64 0 4 0 C4 4 4 4 2.42578125 5.74609375 C1.72839844 6.30425781 1.03101562 6.86242187 0.3125 7.4375 C-0.41582031 8.04207031 -1.14414062 8.64664063 -1.89453125 9.26953125 C-2.58933594 9.84058594 -3.28414062 10.41164063 -4 11 C-7.58052574 14.26917568 -9.24560241 16.55552612 -11 21 C-12.875 22.875 -12.875 22.875 -15 24 C-17.25 23.6875 -17.25 23.6875 -19 23 C-19.75 20.75 -19.75 20.75 -20 18 C-18.11597018 15.46380601 -16.67382626 14.23254947 -13.6796875 13.19921875 C-10.29951836 11.68651915 -8.3230855 9.65012399 -5.75 7 C-4.87859375 6.113125 -4.0071875 5.22625 -3.109375 4.3125 C-0.98214605 2.19125998 -0.98214605 2.19125998 0 0 Z " fill="#833FFF" transform="translate(25,25)"/>
<path d="M0 0 C0.99 0.33 1.98 0.66 3 1 C1.55786269 5.32641194 -1.53121702 7.62281854 -4.81640625 10.703125 C-8.27074003 14.02043928 -10.35375485 16.44116728 -12 21 C-13.875 22.875 -13.875 22.875 -16 24 C-18.25 23.6875 -18.25 23.6875 -20 23 C-20.75 20.75 -20.75 20.75 -21 18 C-19.10464052 15.44855455 -17.65078772 14.22772174 -14.64453125 13.17578125 C-11.44036215 11.75118022 -9.69906499 9.92769261 -7.3125 7.375 C-5.91119933 5.88184937 -4.48102881 4.41410609 -3 3 C-2.34 3 -1.68 3 -1 3 C-0.67 2.01 -0.34 1.02 0 0 Z " fill="#AD2DFF" transform="translate(34,35)"/>
<path d="M0 0 C0.66 0.66 1.32 1.32 2 2 C-3.37221722 9.00878671 -9.52235538 14.17411846 -18 17 C-26.4 17.4 -26.4 17.4 -30 15 C-29.67 14.01 -29.34 13.02 -29 12 C-28.40574219 12.14179687 -27.81148437 12.28359375 -27.19921875 12.4296875 C-19.26353667 13.8366358 -14.48087029 11.5260164 -8 7 C-5.20773239 4.78559504 -2.5596133 2.47893781 0 0 Z " fill="#B429FF" transform="translate(54,41)"/>
<path d="M0 0 C0.66 0.33 1.32 0.66 2 1 C-0.8845623 4.62896548 -3.01009277 6.33652215 -7.5625 6.9375 C-11.01943651 7.26701734 -12.99991536 6.74834865 -16 5 C-15.67 4.34 -15.34 3.68 -15 3 C-13.824375 3.2475 -12.64875 3.495 -11.4375 3.75 C-6.4677554 4.42087138 -4.11971771 2.63661933 0 0 Z " fill="#B030FF" transform="translate(41,46)"/>
<path d="M0 0 C1.9375 0.8125 1.9375 0.8125 4 2 C4.33 2.99 4.66 3.98 5 5 C3.35 4.67 1.7 4.34 0 4 C0 2.68 0 1.36 0 0 Z " fill="#A032FF" transform="translate(17,42)"/>
<path d="M0 0 C0.99 0.33 1.98 0.66 3 1 C2.67 1.99 2.34 2.98 2 4 C1.01 4.33 0.02 4.66 -1 5 C-1.66 4.34 -2.32 3.68 -3 3 C-2.34 3 -1.68 3 -1 3 C-0.67 2.01 -0.34 1.02 0 0 Z " fill="#8646FF" transform="translate(34,35)"/>
<path d="M0 0 C0.99 0.33 1.98 0.66 3 1 C2.67 1.99 2.34 2.98 2 4 C1.01 3.67 0.02 3.34 -1 3 C-0.67 2.01 -0.34 1.02 0 0 Z " fill="#AC38FF" transform="translate(14,46)"/>
</svg>
