<?xml version="1.0" encoding="UTF-8"?>
<svg version="1.1" xmlns="http://www.w3.org/2000/svg" width="64" height="64">
<path d="M0 0 C2.6318604 0.9577973 3.99610872 2.00443577 6.03125 3.8984375 C9.59179798 6.76555888 12.21097353 7.33828588 16.74609375 7.5859375 C17.81980225 7.65167969 18.89351074 7.71742187 19.99975586 7.78515625 C21.22190796 7.84123047 21.22190796 7.84123047 22.46875 7.8984375 C25.79348851 36.82000894 25.79348851 36.82000894 20.50439453 44.89892578 C14.70958035 50.48326633 6.66278182 55.76593669 -1.59375 55.9765625 C-2.563125 55.62078125 -3.5325 55.265 -4.53125 54.8984375 C-5.26843262 54.64360596 -6.00561523 54.38877441 -6.76513672 54.1262207 C-13.45617156 51.5283486 -19.69527303 48.12541144 -23.53125 41.8984375 C-26.52064414 31.2203898 -24.65557783 18.76754682 -23.53125 7.8984375 C-22.72228271 7.86830566 -21.91331543 7.83817383 -21.07983398 7.80712891 C-13.09405228 7.51895005 -13.09405228 7.51895005 -6.59375 3.2734375 C-3.10829273 -0.12471545 -3.10829273 -0.12471545 0 0 Z M-2.53125 3.8984375 C-3.335625 4.7028125 -4.14 5.5071875 -4.96875 6.3359375 C-8.15844814 9.27041862 -11.00722899 9.32868652 -15.25390625 9.55859375 C-16.42832275 9.62828369 -17.60273926 9.69797363 -18.81274414 9.76977539 C-19.70985107 9.81223389 -20.60695801 9.85469238 -21.53125 9.8984375 C-21.80545913 13.88079774 -22.00372272 17.85944344 -22.13549805 21.84912109 C-22.21733545 23.86361719 -22.35720153 25.87548667 -22.49804688 27.88671875 C-22.80998139 35.31600058 -22.80998139 35.31600058 -19.20507812 41.49365234 C-16.39799436 43.53307118 -13.56667781 45.22398693 -10.53125 46.8984375 C-8.88789615 48.08168835 -7.25909546 49.28586695 -5.65625 50.5234375 C-3.70047626 52.12539482 -3.70047626 52.12539482 -1.53125 52.8984375 C3.42358315 51.78489486 7.61943191 48.2150449 11.71875 45.3359375 C12.4509375 44.82869141 13.183125 44.32144531 13.9375 43.79882812 C17.3552949 41.53608071 17.3552949 41.53608071 20.46875 38.8984375 C20.55650605 36.75284923 20.57570219 34.60439329 20.56640625 32.45703125 C20.56318359 31.15185547 20.55996094 29.84667969 20.55664062 28.50195312 C20.54828401 27.1132806 20.53981905 25.72460873 20.53125 24.3359375 C20.52623666 22.94336094 20.52167347 21.55078269 20.51757812 20.15820312 C20.50574434 16.7382388 20.4892588 13.31835906 20.46875 9.8984375 C19.57164307 9.855979 18.67453613 9.81352051 17.75024414 9.76977539 C16.57582764 9.70008545 15.40141113 9.63039551 14.19140625 9.55859375 C13.02617432 9.49551025 11.86094238 9.43242676 10.66040039 9.36743164 C6.15777246 8.70579711 4.61996889 7.04965639 1.46875 3.8984375 C0.14875 3.8984375 -1.17125 3.8984375 -2.53125 3.8984375 Z " fill="#7145FF" transform="translate(32.53125,4.1015625)"/>
<path d="M0 0 C2.89347125 1.27030445 5.04536543 2.90612269 7.42578125 4.96875 C10.69345081 6.73699532 13.87673734 6.788889 17.5625 7.125 C19.3056367 29.69069695 19.3056367 29.69069695 16.56347656 35.09326172 C13.8178049 38.18293132 10.34021512 39.65164012 6.5625 41.125 C5.74136719 41.69347656 4.92023437 42.26195312 4.07421875 42.84765625 C0.70091357 44.56316293 -0.82476603 44.16041135 -4.4375 43.125 C-10.0540612 41.01427946 -15.32770717 38.47322551 -18.4375 33.125 C-20.22782547 24.63056466 -19.29242608 15.69868726 -18.4375 7.125 C-17.75405518 7.0118042 -17.07061035 6.8986084 -16.36645508 6.78198242 C-15.46822021 6.62060791 -14.56998535 6.4592334 -13.64453125 6.29296875 C-12.30998901 6.06130005 -12.30998901 6.06130005 -10.94848633 5.82495117 C-8.31178404 5.08995599 -7.09058072 4.2935794 -5.125 2.4375 C-2.4375 0.125 -2.4375 0.125 0 0 Z M-3.4375 6.0625 C-6.61333835 8.24588886 -7.89924164 8.46661157 -11.625 8.75390625 C-12.52605469 8.82810791 -13.42710938 8.90230957 -14.35546875 8.97875977 C-15.04253906 9.02701904 -15.72960937 9.07527832 -16.4375 9.125 C-18.42048884 21.59211259 -18.42048884 21.59211259 -15.04589844 33.18066406 C-11.09482506 36.97500065 -6.62400439 39.44811983 -1.4375 41.125 C1.22269651 40.63188176 1.22269651 40.63188176 3.5625 39.125 C4.58988281 38.73828125 5.61726563 38.3515625 6.67578125 37.953125 C11.86734113 35.39468557 11.86734113 35.39468557 15.5625 31.125 C17.1125568 23.94958065 16.29164912 16.37162045 15.5625 9.125 C14.87542969 9.07674072 14.18835938 9.02848145 13.48046875 8.97875977 C12.12888672 8.86745728 12.12888672 8.86745728 10.75 8.75390625 C9.41001953 8.65057983 9.41001953 8.65057983 8.04296875 8.54516602 C4.72073072 7.9824129 2.94677246 6.43476395 0.5625 4.125 C-1.66218387 3.89306826 -1.66218387 3.89306826 -3.4375 6.0625 Z " fill="#6F46FF" transform="translate(32.4375,9.875)"/>
<path d="M0 0 C2.64 0 5.28 0 8 0 C8.33 1.98 8.66 3.96 9 6 C9.66 6 10.32 6 11 6 C11 4.68 11 3.36 11 2 C12.32 2 13.64 2 15 2 C14.67 6.62 14.34 11.24 14 16 C7.4 16 0.8 16 -6 16 C-6.33 11.38 -6.66 6.76 -7 2 C-5.68 2 -4.36 2 -3 2 C-3 3.32 -3 4.64 -3 6 C-2.34 6 -1.68 6 -1 6 C-0.67 4.02 -0.34 2.04 0 0 Z " fill="#B4B6FF" transform="translate(28,24)"/>
<path d="M0 0 C2.64 0 5.28 0 8 0 C8.33 1.98 8.66 3.96 9 6 C9.66 6 10.32 6 11 6 C11 4.68 11 3.36 11 2 C12.32 2 13.64 2 15 2 C15 3.65 15 5.3 15 7 C7.74 7 0.48 7 -7 7 C-7 5.35 -7 3.7 -7 2 C-5.68 2 -4.36 2 -3 2 C-3 3.32 -3 4.64 -3 6 C-2.34 6 -1.68 6 -1 6 C-0.67 4.02 -0.34 2.04 0 0 Z " fill="#92BEFF" transform="translate(28,24)"/>
<path d="M0 0 C6.6 0 13.2 0 20 0 C20 1.32 20 2.64 20 4 C13.4 4 6.8 4 0 4 C0 2.68 0 1.36 0 0 Z " fill="#D6AEFF" transform="translate(22,36)"/>
<path d="M0 0 C2.64 0 5.28 0 8 0 C8.33 1.32 8.66 2.64 9 4 C5.7 4 2.4 4 -1 4 C-0.67 2.68 -0.34 1.36 0 0 Z " fill="#7CC3FF" transform="translate(28,24)"/>
</svg>
