<?xml version="1.0" encoding="UTF-8"?>
<svg version="1.1" xmlns="http://www.w3.org/2000/svg" width="64" height="64">
<path d="M0 0 C2.95839355 -0.02689449 5.91654427 -0.04678741 8.875 -0.0625 C9.71675781 -0.07087891 10.55851562 -0.07925781 11.42578125 -0.08789062 C12.23144531 -0.09111328 13.03710938 -0.09433594 13.8671875 -0.09765625 C14.98262939 -0.10551147 14.98262939 -0.10551147 16.12060547 -0.11352539 C18 0 18 0 20 1 C20 1.99 20 2.98 20 4 C21.423125 3.9690625 21.423125 3.9690625 22.875 3.9375 C26 4 26 4 28 5 C28 14.57 28 24.14 28 34 C15 34 15 34 13 33 C13 34.98 13 36.96 13 39 C8.15758367 40.33583899 4.06562383 41.25328119 -1 41 C-1 39.02 -1 37.04 -1 35 C-1.99 35.495 -1.99 35.495 -3 36 C-5.31 36 -7.62 36 -10 36 C-10 25.77 -10 15.54 -10 5 C-7.04335481 3.5216774 -4.25770263 3.93967217 -1 4 C-0.67 2.68 -0.34 1.36 0 0 Z M1 3 C1 4.32 1 5.64 1 7 C-1.64 7 -4.28 7 -7 7 C-7 15.58 -7 24.16 -7 33 C-3.04 32.505 -3.04 32.505 1 32 C1 33.98 1 35.96 1 38 C5.455 37.505 5.455 37.505 10 37 C10.66 35.02 11.32 33.04 12 31 C16.29 31 20.58 31 25 31 C25 23.08 25 15.16 25 7 C22.36 7 19.72 7 17 7 C17 5.68 17 4.36 17 3 C11.72 3 6.44 3 1 3 Z " fill="#4658FF" transform="translate(23,11)"/>
<path d="M0 0 C0.87100342 -0.00945648 1.74200684 -0.01891296 2.6394043 -0.02865601 C3.57695557 -0.02258331 4.51450684 -0.01651062 5.48046875 -0.01025391 C6.44573486 -0.01312408 7.41100098 -0.01599426 8.40551758 -0.01895142 C10.44645779 -0.02099302 12.48741752 -0.01545648 14.52832031 -0.00292969 C17.65604315 0.01312239 20.78247371 -0.00277536 23.91015625 -0.02197266 C25.89192994 -0.01999024 27.87370283 -0.0161466 29.85546875 -0.01025391 C30.79302002 -0.0163266 31.73057129 -0.02239929 32.6965332 -0.02865601 C33.56753662 -0.01919952 34.43854004 -0.00974304 35.3359375 0 C36.10188232 0.00238678 36.86782715 0.00477356 37.65698242 0.00723267 C40.25978338 0.50029392 41.13088311 1.24659201 42.66796875 3.38818359 C43.04891968 5.39916992 43.04891968 5.39916992 43.05615234 7.72021484 C43.06560883 8.59121826 43.07506531 9.46222168 43.08480835 10.35961914 C43.07873566 11.29717041 43.07266296 12.23472168 43.06640625 13.20068359 C43.06927643 14.16594971 43.07214661 15.13121582 43.07510376 16.12573242 C43.07714536 18.16667263 43.07160882 20.20763237 43.05908203 22.24853516 C43.04302995 25.37625799 43.0589277 28.50268855 43.078125 31.63037109 C43.07614259 33.61214479 43.07229895 35.59391767 43.06640625 37.57568359 C43.07551529 38.9820105 43.07551529 38.9820105 43.08480835 40.41674805 C43.07535187 41.28775146 43.06589539 42.15875488 43.05615234 43.05615234 C43.05376556 43.82209717 43.05137878 44.58804199 43.04891968 45.37719727 C42.55585842 47.97999822 41.80956034 48.85109795 39.66796875 50.38818359 C37.65698242 50.76913452 37.65698242 50.76913452 35.3359375 50.77636719 C34.46493408 50.78582367 33.59393066 50.79528015 32.6965332 50.80502319 C31.75898193 50.7989505 30.82143066 50.79287781 29.85546875 50.78662109 C28.40756958 50.79092636 28.40756958 50.79092636 26.93041992 50.7953186 C24.88947971 50.7973602 22.84851998 50.79182366 20.80761719 50.77929688 C17.67989435 50.7632448 14.55346379 50.77914255 11.42578125 50.79833984 C9.44400756 50.79635743 7.46223467 50.79251379 5.48046875 50.78662109 C4.54291748 50.79269379 3.60536621 50.79876648 2.6394043 50.80502319 C1.33289917 50.79083847 1.33289917 50.79083847 0 50.77636719 C-0.76594482 50.77398041 -1.53188965 50.77159363 -2.32104492 50.76913452 C-4.92384588 50.27607327 -5.79494561 49.52977518 -7.33203125 47.38818359 C-7.71298218 45.37719727 -7.71298218 45.37719727 -7.72021484 43.05615234 C-7.72967133 42.18514893 -7.73912781 41.31414551 -7.74887085 40.41674805 C-7.74279816 39.47919678 -7.73672546 38.54164551 -7.73046875 37.57568359 C-7.73333893 36.61041748 -7.73620911 35.64515137 -7.73916626 34.65063477 C-7.74120786 32.60969455 -7.73567132 30.56873482 -7.72314453 28.52783203 C-7.70709245 25.40010919 -7.7229902 22.27367864 -7.7421875 19.14599609 C-7.74020509 17.1642224 -7.73636145 15.18244952 -7.73046875 13.20068359 C-7.73654144 12.26313232 -7.74261414 11.32558105 -7.74887085 10.35961914 C-7.73941437 9.48861572 -7.72995789 8.6176123 -7.72021484 7.72021484 C-7.71782806 6.95427002 -7.71544128 6.1883252 -7.71298218 5.39916992 C-6.87262661 0.96305116 -4.17729285 0.01301697 0 0 Z M-4.33203125 4.38818359 C-5.56864767 8.09803286 -5.49433735 11.55116651 -5.5 15.41552734 C-5.5033284 16.20085342 -5.5066568 16.9861795 -5.51008606 17.79530334 C-5.51514588 19.45540787 -5.51749468 21.11552254 -5.51733398 22.77563477 C-5.51952004 25.31267072 -5.53768421 27.84927146 -5.55664062 30.38623047 C-5.55957484 32.00016127 -5.56155945 33.61409414 -5.5625 35.22802734 C-5.56968552 35.98542709 -5.57687103 36.74282684 -5.58427429 37.5231781 C-5.60037047 42.79245459 -5.60037047 42.79245459 -3.33203125 47.38818359 C0.37781801 48.62480001 3.83095167 48.55048969 7.6953125 48.55615234 C8.48063858 48.55948074 9.26596466 48.56280914 10.0750885 48.5662384 C11.73519302 48.57129822 13.3953077 48.57364702 15.05541992 48.57348633 C17.59245588 48.57567238 20.12905662 48.59383656 22.66601562 48.61279297 C24.27994643 48.61572719 25.8938793 48.61771179 27.5078125 48.61865234 C28.26521225 48.62583786 29.022612 48.63302338 29.80296326 48.64042664 C35.07223975 48.65652281 35.07223975 48.65652281 39.66796875 46.38818359 C40.90458517 42.67833433 40.83027485 39.22520068 40.8359375 35.36083984 C40.8392659 34.57551376 40.8425943 33.79018768 40.84602356 32.98106384 C40.85108338 31.32095932 40.85343218 29.66084465 40.85327148 28.00073242 C40.85545754 25.46369647 40.87362171 22.92709573 40.89257812 20.39013672 C40.89551234 18.77620591 40.89749695 17.16227304 40.8984375 15.54833984 C40.90562302 14.79094009 40.91280853 14.03354034 40.92021179 13.25318909 C40.93630797 7.9839126 40.93630797 7.9839126 38.66796875 3.38818359 C34.95811949 2.15156717 31.50498583 2.22587749 27.640625 2.22021484 C26.85529892 2.21688644 26.06997284 2.21355804 25.260849 2.21012878 C23.60074448 2.20506897 21.9406298 2.20272017 20.28051758 2.20288086 C17.74348162 2.20069481 15.20688088 2.18253063 12.66992188 2.16357422 C11.05599107 2.16064 9.4420582 2.15865539 7.828125 2.15771484 C7.07072525 2.15052933 6.3133255 2.14334381 5.53297424 2.13594055 C0.26369775 2.11984438 0.26369775 2.11984438 -4.33203125 4.38818359 Z " fill="#7246FF" transform="translate(14.33203125,6.61181640625)"/>
<path d="M0 0 C3.96 0 7.92 0 12 0 C12 1.65 12 3.3 12 5 C11 6 11 6 8.4375 6.0625 C7.2309375 6.0315625 7.2309375 6.0315625 6 6 C6 7.65 6 9.3 6 11 C7.65 11 9.3 11 11 11 C11 12.98 11 14.96 11 17 C9.35 17 7.7 17 6 17 C6 20.63 6 24.26 6 28 C4.02 28.33 2.04 28.66 0 29 C0 19.43 0 9.86 0 0 Z " fill="#B3B6FF" transform="translate(26,17)"/>
<path d="M0 0 C-0.33 2.97 -0.66 5.94 -1 9 C1.64 8.67 4.28 8.34 7 8 C7 9.98 7 11.96 7 14 C8.46275935 13.82543201 9.92056353 13.60899451 11.375 13.375 C12.18710937 13.25898437 12.99921875 13.14296875 13.8359375 13.0234375 C14.55007812 12.68570313 15.26421875 12.34796875 16 12 C16.66 10.02 17.32 8.04 18 6 C22.29 6.33 26.58 6.66 31 7 C31 4.69 31 2.38 31 0 C31.99 0 32.98 0 34 0 C34 3.3 34 6.6 34 10 C31.87506859 10.02693575 29.75004088 10.04636628 27.625 10.0625 C26.44164063 10.07410156 25.25828125 10.08570313 24.0390625 10.09765625 C21 10 21 10 19 9 C19 10.98 19 12.96 19 15 C14.15758367 16.33583899 10.06562383 17.25328119 5 17 C5 15.02 5 13.04 5 11 C4.01 11.495 4.01 11.495 3 12 C0.6670134 12.04022391 -1.66706666 12.04320247 -4 12 C-4 8.37 -4 4.74 -4 1 C-2 0 -2 0 0 0 Z " fill="#A031FF" transform="translate(17,35)"/>
<path d="M0 0 C3.96 0 7.92 0 12 0 C12 1.65 12 3.3 12 5 C11 6 11 6 8.4375 6.0625 C7.2309375 6.0315625 7.2309375 6.0315625 6 6 C6.33 7.98 6.66 9.96 7 12 C4.69 12 2.38 12 0 12 C0 8.04 0 4.08 0 0 Z " fill="#82C1FF" transform="translate(26,17)"/>
<path d="M0 0 C1.98 0 3.96 0 6 0 C6 1.98 6 3.96 6 6 C4.02 6.33 2.04 6.66 0 7 C0 4.69 0 2.38 0 0 Z " fill="#DBADFF" transform="translate(26,39)"/>
</svg>
