<?xml version="1.0" encoding="UTF-8"?>
<svg version="1.1" xmlns="http://www.w3.org/2000/svg" width="64" height="64">
<path d="M0 0 C9.57 0 19.14 0 29 0 C29 2.31 29 4.62 29 7 C28.34 7 27.68 7 27 7 C28.32 9.64 29.64 12.28 31 15 C31.99 12.69 32.98 10.38 34 8 C33.34 7.34 32.68 6.68 32 6 C32 4.02 32 2.04 32 0 C39.26 0 46.52 0 54 0 C54 2.64 54 5.28 54 8 C52.02 8.33 50.04 8.66 48 9 C47.599021 10.27061279 47.599021 10.27061279 47.18994141 11.56689453 C45.95678253 15.12468692 44.50978051 18.4979373 42.9609375 21.9296875 C42.67521881 22.56488312 42.38950012 23.20007874 42.09512329 23.85452271 C41.19112893 25.86258462 40.28313664 27.86880854 39.375 29.875 C38.7575463 31.24467169 38.14035619 32.61446225 37.5234375 33.984375 C36.01866963 37.32429612 34.51031328 40.66258221 33 44 C29.7 44 26.4 44 23 44 C22.56655273 43.1529248 22.13310547 42.30584961 21.68652344 41.43310547 C20.06503415 38.26666155 18.43873653 35.10270759 16.81103516 31.93945312 C16.10954185 30.57455956 15.409324 29.20900963 14.71044922 27.84277344 C13.70100716 25.86996941 12.6868789 23.8996346 11.671875 21.9296875 C11.36441345 21.32631561 11.0569519 20.72294373 10.74017334 20.10128784 C7.47590978 12.88552844 7.47590978 12.88552844 1.75 8.125 C0.88375 8.063125 0.88375 8.063125 0 8 C0 5.36 0 2.72 0 0 Z M3 2 C3 3.32 3 4.64 3 6 C3.57975586 5.83701416 4.15951172 5.67402832 4.75683594 5.50610352 C8.22673123 4.72322444 11.712623 4.89687641 15.25 4.9375 C15.99507812 4.94201172 16.74015625 4.94652344 17.5078125 4.95117188 C19.3385764 4.96290754 21.16929873 4.9808415 23 5 C23 6.65 23 8.3 23 10 C24.57273568 7.1575146 24.57273568 7.1575146 25 4 C25.66 4 26.32 4 27 4 C27 3.34 27 2.68 27 2 C19.08 2 11.16 2 3 2 Z M35 2 C35 2.66 35 3.32 35 4 C35.66 4 36.32 4 37 4 C37.18481808 8.06599782 36.84879356 10.42566579 35 14 C35.33 14.99 35.66 15.98 36 17 C38.41685712 12.77050005 39.34833144 9.87664009 39 5 C41.31 5 43.62 5 46 5 C45.34 6.32 44.68 7.64 44 9 C44.99 8.34 45.98 7.68 47 7 C48.65549531 6.61500109 50.3222433 6.27206865 52 6 C52 4.68 52 3.36 52 2 C46.39 2 40.78 2 35 2 Z M8 7 C9 9 9 9 9 9 Z M43 9 C41.87483915 10.83284443 41.87483915 10.83284443 41 13 C41.33 13.99 41.66 14.98 42 16 C43.12516085 14.16715557 43.12516085 14.16715557 44 12 C43.67 11.01 43.34 10.02 43 9 Z M10 10 C11 12 11 12 11 12 Z M11 12 C12 14 12 14 12 14 Z M25 13 C26 15 26 15 26 15 Z M12 14 C13 16 13 16 13 16 Z M26 15 C27 17 27 17 27 17 Z M13 16 C14 18 14 18 14 18 Z M40 16 C41 18 41 18 41 18 Z M27 17 C28 19 28 19 28 19 Z M34 17 C35 19 35 19 35 19 Z M14 18 C15 20 15 20 15 20 Z M39 18 C40 20 40 20 40 20 Z M28 19 C29 21 29 21 29 21 Z M33 19 C34 21 34 21 34 21 Z M15 20 C16 22 16 22 16 22 Z M38 20 C36.87483915 21.83284443 36.87483915 21.83284443 36 24 C36.33 24.99 36.66 25.98 37 27 C38.12516085 25.16715557 38.12516085 25.16715557 39 23 C38.67 22.01 38.34 21.02 38 20 Z M29 21 C30 23 30 23 30 23 Z M32 21 C33 23 33 23 33 23 Z M16 22 C17 24 17 24 17 24 Z M30 23 C30 23.99 30 24.98 30 26 C30.66 26 31.32 26 32 26 C32 25.01 32 24.02 32 23 C31.34 23 30.68 23 30 23 Z M19 27 C20 29 20 29 20 29 Z M35 27 C36 29 36 29 36 29 Z M20 29 C21 31 21 31 21 31 Z M34 29 C35 31 35 31 35 31 Z M21 31 C22 33 22 33 22 33 Z M33 31 C31.87483915 32.83284443 31.87483915 32.83284443 31 35 C31.33 35.99 31.66 36.98 32 38 C33.12516085 36.16715557 33.12516085 36.16715557 34 34 C33.67 33.01 33.34 32.02 33 31 Z M22 33 C23 35 23 35 23 35 Z M23 35 C24 37 24 37 24 37 Z M24 37 C25 39 25 39 25 39 Z M30 38 C31 40 31 40 31 40 Z M26 40 C26 40.66 26 41.32 26 42 C27.32 42 28.64 42 30 42 C30 41.34 30 40.68 30 40 C28.68 40 27.36 40 26 40 Z " fill="#624CFF" transform="translate(5,10)"/>
<path d="M0 0 C6.6 0 13.2 0 20 0 C20 1.98 20 3.96 20 6 C21.27568657 9.37514425 21.27568657 9.37514425 23 12.6875 C26 18.70833333 26 18.70833333 26 22 C26.66 22 27.32 22 28 22 C28.11214844 21.27554688 28.22429688 20.55109375 28.33984375 19.8046875 C29.0311345 16.86772445 30.09165836 14.74821045 31.5625 12.125 C33.85067095 7.7327638 34.53219886 4.89622951 34 0 C37.63 0 41.26 0 45 0 C44.24823486 0.67506592 43.49646973 1.35013184 42.72192383 2.0456543 C39.7469674 5.02950936 38.09821291 8.43391948 36.44921875 12.26953125 C36.14554886 12.95053391 35.84187897 13.63153656 35.52900696 14.33317566 C34.57094267 16.48832141 33.6290485 18.65009542 32.6875 20.8125 C32.03686706 22.28367227 31.3851844 23.75438077 30.73242188 25.22460938 C29.14276109 28.81115846 27.5675531 32.40373676 26 36 C23.72900391 35.89379883 23.72900391 35.89379883 21 35 C19.51148539 32.8718264 18.4365615 31.01640257 17.3359375 28.69921875 C17.01718658 28.06643509 16.69843567 27.43365143 16.37002563 26.7816925 C15.35464691 24.75826895 14.36418234 22.72383963 13.375 20.6875 C12.37399867 18.66454279 11.36799836 16.64419758 10.35855103 14.6254425 C9.7325894 13.3696096 9.11232353 12.1109166 8.49862671 10.8490448 C6.20999816 6.19779995 4.34173785 2.8944919 0 0 Z " fill="#B8B5FF" transform="translate(9,14)"/>
</svg>
