<?xml version="1.0" encoding="UTF-8"?>
<svg version="1.1" xmlns="http://www.w3.org/2000/svg" width="64" height="64">
<path d="M0 0 C16.875 1.875 16.875 1.875 22.625 7.625 C24.79565759 11.37431765 25.18652777 13.57378392 25.25 17.9375 C25.27578125 18.99839844 25.3015625 20.05929688 25.328125 21.15234375 C25 24 25 24 23.77734375 25.8671875 C21.47754775 27.33299154 20.01814321 27.30513666 17.3125 27.1875 C15.889375 27.125625 14.46625 27.06375 13 27 C12.67 22.71 12.34 18.42 12 14 C12 18.95 12 23.9 12 29 C13.21816406 28.96519531 14.43632813 28.93039063 15.69140625 28.89453125 C17.31509028 28.86637488 18.93878935 28.83907671 20.5625 28.8125 C21.36236328 28.78736328 22.16222656 28.76222656 22.98632812 28.73632812 C28.44794805 28.66945115 32.12924103 29.5090481 37 32 C37 33.98 37 35.96 37 38 C13.73782939 48.82894149 13.73782939 48.82894149 2.5625 46.1875 C1.2940625 45.5996875 1.2940625 45.5996875 0 45 C-0.33 44.01 -0.66 43.02 -1 42 C-1.52464844 42.15984375 -2.04929687 42.3196875 -2.58984375 42.484375 C-5.612823 43.13110638 -8.47196356 43.20780838 -11.5625 43.25 C-13.26599609 43.28867188 -13.26599609 43.28867188 -15.00390625 43.328125 C-18 43 -18 43 -19.890625 41.71484375 C-21.6855826 38.94024381 -21.18129365 36.20285455 -21 33 C-15.03737175 29.2056002 -7.20867757 25 0 25 C0 16.75 0 8.5 0 0 Z M2 3 C2 15.87 2 28.74 2 42 C4.31 42.66 6.62 43.32 9 44 C9 32.45 9 20.9 9 9 C10.65 9.33 12.3 9.66 14 10 C14.33 14.62 14.66 19.24 15 24 C16.98 24 18.96 24 21 24 C22.64037395 22.35962605 22.24911331 20.50523159 22.3125 18.25 C22.2509577 14.92671599 22.07753419 13.16211694 20.625 10.125 C15.10291863 5.65474365 8.91389306 4.15231551 2 3 Z M-1 28 C0 30 0 30 0 30 Z M16.875 32 C15.96492188 32.185625 15.05484375 32.37125 14.1171875 32.5625 C13.41851562 32.706875 12.71984375 32.85125 12 33 C12 33.33 12 33.66 12 34 C19.92 33.505 19.92 33.505 28 33 C28 34.32 28 35.64 28 37 C27.01 37.33 26.02 37.66 25 38 C29.64586892 37.51515724 29.64586892 37.51515724 34 36 C34 35.34 34 34.68 34 34 C32.37604003 33.49663233 30.75079459 32.99741024 29.125 32.5 C28.22007813 32.2215625 27.31515625 31.943125 26.3828125 31.65625 C22.89233863 30.69493916 20.38695072 31.27959985 16.875 32 Z M-18 35 C-17.67 36.65 -17.34 38.3 -17 40 C-13.01803543 41.05404945 -10.01804691 40.84098656 -6 40 C-6 39.67 -6 39.34 -6 39 C-7.98 39 -9.96 39 -12 39 C-11.67 37.35 -11.34 35.7 -11 34 C-14.48581856 32.7979936 -14.67992344 32.78661563 -18 35 Z M11 42 C11 42.66 11 43.32 11 44 C12.65 43.67 14.3 43.34 16 43 C16 42.67 16 42.34 16 42 C14.35 42 12.7 42 11 42 Z " fill="#8B3DFF" transform="translate(24,8)"/>
<path d="M0 0 C1.66611905 -0.042721 3.33382885 -0.04063832 5 0 C6 1 6 1 6.09765625 4.16015625 C6.08605469 5.44792969 6.07445312 6.73570313 6.0625 8.0625 C6.05347656 9.35285156 6.04445313 10.64320312 6.03515625 11.97265625 C6.02355469 12.97167969 6.01195312 13.97070312 6 15 C7.98 14.67 9.96 14.34 12 14 C12.33 11.03 12.66 8.06 13 5 C13.99 5 14.98 5 16 5 C16.08121924 6.60332791 16.13929134 8.20784026 16.1875 9.8125 C16.23970703 11.15248047 16.23970703 11.15248047 16.29296875 12.51953125 C16 15 16 15 14.78125 16.8125 C12.47859892 18.34760072 11.05533666 18.30675377 8.3125 18.1875 C6.1778125 18.0946875 6.1778125 18.0946875 4 18 C3.67 13.71 3.34 9.42 3 5 C2.01 4.67 1.02 4.34 0 4 C0 2.68 0 1.36 0 0 Z " fill="#5F4DFF" transform="translate(33,17)"/>
<path d="M0 0 C0 0.66 0 1.32 0 2 C-4.88077452 4.44038726 -7.52667068 5.46845421 -13 4 C-8.62615587 1.08410391 -5.29457529 -0.30254716 0 0 Z " fill="#A7AFFF" transform="translate(23,37)"/>
<path d="M0 0 C-3.43772727 3.43772727 -7.10960984 3.97127774 -11.875 4.125 C-12.90625 4.08375 -13.9375 4.0425 -15 4 C-10.7923604 -0.2076396 -5.6868542 -0.22747417 0 0 Z " fill="#A9AEFF" transform="translate(52,46)"/>
</svg>
