<?xml version="1.0" encoding="UTF-8"?>
<svg version="1.1" xmlns="http://www.w3.org/2000/svg" width="64" height="64">
<path d="M0 0 C0.83096191 -0.00945648 1.66192383 -0.01891296 2.51806641 -0.02865601 C3.41187012 -0.02258331 4.30567383 -0.01651062 5.2265625 -0.01025391 C6.14743652 -0.01312408 7.06831055 -0.01599426 8.01708984 -0.01895142 C9.96387344 -0.02099272 11.91067752 -0.01545824 13.85742188 -0.00292969 C16.84030949 0.01312303 19.82184211 -0.00277613 22.8046875 -0.02197266 C24.6953155 -0.01999024 26.58594265 -0.01614659 28.4765625 -0.01025391 C29.37036621 -0.0163266 30.26416992 -0.02239929 31.18505859 -0.02865601 C32.43150146 -0.01447128 32.43150146 -0.01447128 33.703125 0 C34.79874756 0.00358017 34.79874756 0.00358017 35.91650391 0.00723267 C38.45986924 0.50793967 39.33324096 1.30569741 40.8515625 3.38818359 C41.23251343 5.32324219 41.23251343 5.32324219 41.23974609 7.53662109 C41.24920258 8.36758301 41.25865906 9.19854492 41.2684021 10.0546875 C41.26232941 10.94849121 41.25625671 11.84229492 41.25 12.76318359 C41.25287018 13.68405762 41.25574036 14.60493164 41.25869751 15.55371094 C41.26073881 17.50049454 41.25520433 19.44729861 41.24267578 21.39404297 C41.22662306 24.37693059 41.24252222 27.35846321 41.26171875 30.34130859 C41.25973633 32.23193659 41.25589268 34.12256374 41.25 36.01318359 C41.25910904 37.35388916 41.25910904 37.35388916 41.2684021 38.72167969 C41.25894562 39.5526416 41.24948914 40.38360352 41.23974609 41.23974609 C41.23735931 41.97016113 41.23497253 42.70057617 41.23251343 43.453125 C40.73180643 45.99649034 39.93404868 46.86986205 37.8515625 48.38818359 C35.91650391 48.76913452 35.91650391 48.76913452 33.703125 48.77636719 C32.45668213 48.79055191 32.45668213 48.79055191 31.18505859 48.80502319 C30.29125488 48.7989505 29.39745117 48.79287781 28.4765625 48.78662109 C27.09525146 48.79092636 27.09525146 48.79092636 25.68603516 48.7953186 C23.73925156 48.79735991 21.79244748 48.79182543 19.84570312 48.77929688 C16.86281551 48.76324415 13.88128289 48.77914331 10.8984375 48.79833984 C9.0078095 48.79635742 7.11718235 48.79251377 5.2265625 48.78662109 C4.33275879 48.79269379 3.43895508 48.79876648 2.51806641 48.80502319 C1.27162354 48.79083847 1.27162354 48.79083847 0 48.77636719 C-0.73041504 48.77398041 -1.46083008 48.77159363 -2.21337891 48.76913452 C-4.75674424 48.26842752 -5.63011596 47.47066978 -7.1484375 45.38818359 C-7.52938843 43.453125 -7.52938843 43.453125 -7.53662109 41.23974609 C-7.54607758 40.40878418 -7.55553406 39.57782227 -7.5652771 38.72167969 C-7.55920441 37.82787598 -7.55313171 36.93407227 -7.546875 36.01318359 C-7.54974518 35.09230957 -7.55261536 34.17143555 -7.55557251 33.22265625 C-7.55761381 31.27587265 -7.55207933 29.32906857 -7.53955078 27.38232422 C-7.52349806 24.3994366 -7.53939722 21.41790398 -7.55859375 18.43505859 C-7.55661133 16.5444306 -7.55276768 14.65380345 -7.546875 12.76318359 C-7.55294769 11.86937988 -7.55902039 10.97557617 -7.5652771 10.0546875 C-7.55582062 9.22372559 -7.54636414 8.39276367 -7.53662109 7.53662109 C-7.53423431 6.80620605 -7.53184753 6.07579102 -7.52938843 5.32324219 C-6.68783977 1.04855522 -4.04755425 0.01322621 0 0 Z M-4.1484375 4.38818359 C-5.33525476 7.94863536 -5.24533582 10.82626697 -5.2109375 14.57568359 C-5.20191406 15.84798828 -5.19289063 17.12029297 -5.18359375 18.43115234 C-5.17199219 19.40697266 -5.16039062 20.38279297 -5.1484375 21.38818359 C-3.75827939 22.06660498 -2.3609848 22.73041259 -0.9609375 23.38818359 C-0.18363281 23.75943359 0.59367188 24.13068359 1.39453125 24.51318359 C4.15625322 25.4966903 5.948737 25.84677329 8.8515625 25.38818359 C12.40190731 21.85386743 14.82977685 17.23540356 16.0390625 12.38818359 C16.3071875 11.39818359 16.5753125 10.40818359 16.8515625 9.38818359 C19.79983013 8.40542772 21.77808754 8.25403635 24.8515625 8.26318359 C25.7178125 8.26060547 26.5840625 8.25802734 27.4765625 8.25537109 C29.8515625 8.38818359 29.8515625 8.38818359 32.8515625 9.38818359 C33.83431838 12.33645122 33.98570975 14.31470863 33.9765625 17.38818359 C33.98042969 18.68755859 33.98042969 18.68755859 33.984375 20.01318359 C33.8515625 22.38818359 33.8515625 22.38818359 32.8515625 25.38818359 C30.99609375 26.16162109 30.99609375 26.16162109 28.6640625 26.76318359 C23.94941779 28.21211103 21.2677383 29.80536507 17.8515625 33.38818359 C16.58372126 36.52169077 16.58372126 36.52169077 15.8515625 39.38818359 C12.67615306 40.97588831 9.30965691 40.79918662 5.8515625 40.38818359 C3.67679849 38.84480268 3.03323613 37.75153086 1.8515625 35.38818359 C-0.4624997 34.65742711 -2.79672619 33.98680102 -5.1484375 33.38818359 C-5.60172776 39.74615161 -5.60172776 39.74615161 -3.1484375 45.38818359 C0.43414635 46.58237821 3.71188962 46.55035322 7.44140625 46.55615234 C8.18234024 46.55948074 8.92327423 46.56280914 9.68666077 46.5662384 C11.25260803 46.57129712 12.81856606 46.57364705 14.38452148 46.57348633 C16.77671103 46.57567231 19.16843893 46.59383729 21.56054688 46.61279297 C23.08333176 46.61572724 24.60611883 46.61771181 26.12890625 46.61865234 C27.19938454 46.62943062 27.19938454 46.62943062 28.29148865 46.64042664 C31.92832739 46.62374426 34.8657707 46.60526435 37.8515625 44.38818359 C39.04575712 40.80559975 39.01373213 37.52785648 39.01953125 33.79833984 C39.02285965 33.05740585 39.02618805 32.31647186 39.02961731 31.55308533 C39.03467603 29.98713806 39.03702596 28.42118004 39.03686523 26.85522461 C39.03905121 24.46303506 39.0572162 22.07130717 39.07617188 19.67919922 C39.07910614 18.15641433 39.08109072 16.63362726 39.08203125 15.11083984 C39.08921677 14.39718765 39.09640228 13.68353546 39.10380554 12.94825745 C39.08712317 9.31141871 39.06864326 6.37397539 36.8515625 3.38818359 C33.26897865 2.19398898 29.99123538 2.22601396 26.26171875 2.22021484 C25.52078476 2.21688644 24.77985077 2.21355804 24.01646423 2.21012878 C22.45051697 2.20507006 20.88455894 2.20272013 19.31860352 2.20288086 C16.92641397 2.20069488 14.53468607 2.1825299 12.14257812 2.16357422 C10.61979324 2.16063995 9.09700617 2.15865538 7.57421875 2.15771484 C6.86056656 2.15052933 6.14691437 2.14334381 5.41163635 2.13594055 C1.77479761 2.15262292 -1.1626457 2.17110284 -4.1484375 4.38818359 Z M21.8515625 10.38818359 C21.8515625 10.71818359 21.8515625 11.04818359 21.8515625 11.38818359 C23.8315625 11.38818359 25.8115625 11.38818359 27.8515625 11.38818359 C27.8515625 11.05818359 27.8515625 10.72818359 27.8515625 10.38818359 C25.8715625 10.38818359 23.8915625 10.38818359 21.8515625 10.38818359 Z M17.8515625 14.38818359 C17.8515625 16.36818359 17.8515625 18.34818359 17.8515625 20.38818359 C18.1815625 20.38818359 18.5115625 20.38818359 18.8515625 20.38818359 C18.8515625 18.40818359 18.8515625 16.42818359 18.8515625 14.38818359 C18.5215625 14.38818359 18.1915625 14.38818359 17.8515625 14.38818359 Z M22.8515625 14.38818359 C22.5215625 16.03818359 22.1915625 17.68818359 21.8515625 19.38818359 C24.3265625 19.88318359 24.3265625 19.88318359 26.8515625 20.38818359 C27.1815625 18.73818359 27.5115625 17.08818359 27.8515625 15.38818359 C26.2015625 15.05818359 24.5515625 14.72818359 22.8515625 14.38818359 Z M30.8515625 14.38818359 C30.8515625 16.36818359 30.8515625 18.34818359 30.8515625 20.38818359 C31.1815625 20.38818359 31.5115625 20.38818359 31.8515625 20.38818359 C31.8515625 18.40818359 31.8515625 16.42818359 31.8515625 14.38818359 C31.5215625 14.38818359 31.1915625 14.38818359 30.8515625 14.38818359 Z M13.8515625 22.38818359 C13.5215625 23.37818359 13.1915625 24.36818359 12.8515625 25.38818359 C14.1715625 26.70818359 15.4915625 28.02818359 16.8515625 29.38818359 C17.8415625 29.05818359 18.8315625 28.72818359 19.8515625 28.38818359 C19.5215625 27.39818359 19.1915625 26.40818359 18.8515625 25.38818359 C18.1915625 25.38818359 17.5315625 25.38818359 16.8515625 25.38818359 C16.5215625 24.39818359 16.1915625 23.40818359 15.8515625 22.38818359 C15.1915625 22.38818359 14.5315625 22.38818359 13.8515625 22.38818359 Z M21.8515625 23.38818359 C21.8515625 23.71818359 21.8515625 24.04818359 21.8515625 24.38818359 C23.8315625 24.38818359 25.8115625 24.38818359 27.8515625 24.38818359 C27.8515625 24.05818359 27.8515625 23.72818359 27.8515625 23.38818359 C25.8715625 23.38818359 23.8915625 23.38818359 21.8515625 23.38818359 Z M-5.1484375 25.38818359 C-5.1484375 27.03818359 -5.1484375 28.68818359 -5.1484375 30.38818359 C-2.8384375 31.04818359 -0.5284375 31.70818359 1.8515625 32.38818359 C2.1815625 30.73818359 2.5115625 29.08818359 2.8515625 27.38818359 C-0.05444011 26.13153382 -1.94448334 25.38818359 -5.1484375 25.38818359 Z M4.8515625 30.38818359 C4.51822917 33.38818359 4.51822917 33.38818359 4.8515625 36.38818359 C6.73656521 38.70381446 6.73656521 38.70381446 9.8515625 38.63818359 C12.96655979 38.70381446 12.96655979 38.70381446 14.8515625 36.38818359 C15.18489583 33.38818359 15.18489583 33.38818359 14.8515625 30.38818359 C12.96655979 28.07255273 12.96655979 28.07255273 9.8515625 28.13818359 C6.73656521 28.07255273 6.73656521 28.07255273 4.8515625 30.38818359 Z " fill="#6F47FF" transform="translate(15.1484375,7.61181640625)"/>
<path d="M0 0 C2.10651977 3.37043163 2.06806724 5.59990985 1.5625 9.5 C-1.33842502 11.43395001 -2.33424737 11.80131941 -5.625 12.125 C-6.883125 12.24875 -8.14125 12.3725 -9.4375 12.5 C-11.94496579 9.88805647 -12.43185325 8.55458522 -12.8125 4.875 C-12.626875 3.204375 -12.626875 3.204375 -12.4375 1.5 C-8.32717004 -1.24021997 -4.44937079 -2.73807433 0 0 Z M-7.4375 2.5 C-7.7675 4.15 -8.0975 5.8 -8.4375 7.5 C-5.9625 7.995 -5.9625 7.995 -3.4375 8.5 C-3.1075 6.85 -2.7775 5.2 -2.4375 3.5 C-4.0875 3.17 -5.7375 2.84 -7.4375 2.5 Z " fill="#5652FF" transform="translate(45.4375,19.5)"/>
<path d="M0 0 C3 0.125 3 0.125 4 1.125 C4.125 4.125 4.125 4.125 4 7.125 C3 8.125 3 8.125 0 8.25 C-3 8.125 -3 8.125 -4 7.125 C-4.125 4.125 -4.125 4.125 -4 1.125 C-3 0.125 -3 0.125 0 0 Z " fill="#BBB4FF" transform="translate(25,36.875)"/>
<path d="M0 0 C1.98 0 3.96 0 6 0 C6.33 1.32 6.66 2.64 7 4 C4.36 4 1.72 4 -1 4 C-0.67 2.68 -0.34 1.36 0 0 Z " fill="#90BEFF" transform="translate(22,37)"/>
</svg>
