<?xml version="1.0" encoding="UTF-8"?>
<svg version="1.1" xmlns="http://www.w3.org/2000/svg" width="64" height="64">
<path d="M0 0 C2.95908553 1.2967838 4.66757459 2.48352175 6.55859375 5.09765625 C7.02056152 5.72607422 7.4825293 6.35449219 7.95849609 7.00195312 C8.69060303 8.02192383 8.69060303 8.02192383 9.4375 9.0625 C10.50038039 10.51239487 11.56421623 11.96158971 12.62890625 13.41015625 C13.17949707 14.16312988 13.73008789 14.91610352 14.29736328 15.69189453 C17.10631442 19.49972706 19.99118221 23.24873651 22.875 27 C24.41283751 29.00295808 25.94960765 31.00658424 27.47949219 33.015625 C28.54745443 34.40939461 29.62733339 35.79407483 30.71582031 37.171875 C31.26592773 37.87828125 31.81603516 38.5846875 32.3828125 39.3125 C32.88441895 39.94800781 33.38602539 40.58351562 33.90283203 41.23828125 C35 43 35 43 35 46 C19.25434192 48.22349774 19.25434192 48.22349774 13.98681641 44.62451172 C10.44611073 41.13626094 7.68334167 37.1118131 5.14794922 32.85107422 C3.92532728 30.77466733 3.92532728 30.77466733 1.69921875 28.3125 C-0.98396577 23.08183225 -0.41959671 17.90433411 -0.25 12.125 C-0.23195313 10.9596875 -0.21390625 9.794375 -0.1953125 8.59375 C-0.1483382 5.72831751 -0.08266293 2.86458832 0 0 Z " fill="#B6B3FF" transform="translate(6,12)"/>
<path d="M0 0 C0.99 0 1.98 0 3 0 C3.11614929 4.0830942 3.18723457 8.16576377 3.25 12.25 C3.30027344 13.98830078 3.30027344 13.98830078 3.3515625 15.76171875 C3.36445312 16.87675781 3.37734375 17.99179687 3.390625 19.140625 C3.41157227 20.16704102 3.43251953 21.19345703 3.45410156 22.25097656 C2.87401102 25.7627075 1.84609581 26.91155113 -1 29 C-3.19824219 29.45410156 -3.19824219 29.45410156 -5.546875 29.390625 C-6.39121094 29.37773438 -7.23554687 29.36484375 -8.10546875 29.3515625 C-8.97816406 29.31804688 -9.85085937 29.28453125 -10.75 29.25 C-11.63816406 29.23195313 -12.52632812 29.21390625 -13.44140625 29.1953125 C-15.62870848 29.14827374 -17.81379816 29.08257009 -20 29 C-18.3890992 23.74118837 -15.03702184 19.877889 -11.6875 15.625 C-10.54450421 14.15968717 -9.40256383 12.69355043 -8.26171875 11.2265625 C-7.70919434 10.52176758 -7.15666992 9.81697266 -6.58740234 9.09082031 C-5.06970255 7.09180754 -3.66849462 5.04392005 -2.26953125 2.9609375 C-1.52058594 1.98382813 -0.77164063 1.00671875 0 0 Z " fill="#CDADFF" transform="translate(55,14)"/>
<path d="M0 0 C2.95908553 1.2967838 4.66757459 2.48352175 6.55859375 5.09765625 C7.02056152 5.72607422 7.4825293 6.35449219 7.95849609 7.00195312 C8.69060303 8.02192383 8.69060303 8.02192383 9.4375 9.0625 C10.50038039 10.51239487 11.56421623 11.96158971 12.62890625 13.41015625 C13.17949707 14.16312988 13.73008789 14.91610352 14.29736328 15.69189453 C17.10631442 19.49972706 19.99118221 23.24873651 22.875 27 C24.41283751 29.00295808 25.94960765 31.00658424 27.47949219 33.015625 C28.54745443 34.40939461 29.62733339 35.79407483 30.71582031 37.171875 C31.26592773 37.87828125 31.81603516 38.5846875 32.3828125 39.3125 C32.88441895 39.94800781 33.38602539 40.58351562 33.90283203 41.23828125 C35 43 35 43 35 46 C19.25434192 48.22349774 19.25434192 48.22349774 13.98681641 44.62451172 C10.44611073 41.13626094 7.68334167 37.1118131 5.14794922 32.85107422 C3.92532728 30.77466733 3.92532728 30.77466733 1.69921875 28.3125 C-0.98396577 23.08183225 -0.41959671 17.90433411 -0.25 12.125 C-0.23195313 10.9596875 -0.21390625 9.794375 -0.1953125 8.59375 C-0.1483382 5.72831751 -0.08266293 2.86458832 0 0 Z M2 6 C0.8677346 15.15247863 0.225404 22.78366705 6.09667969 30.38647461 C8.18610767 32.82054097 10.31861473 35.18820034 12.57128906 37.47241211 C14 39 14 39 15.96875 41.8984375 C17.89721137 44.31927992 17.89721137 44.31927992 21.234375 44.48828125 C22.39453125 44.43027344 23.5546875 44.37226562 24.75 44.3125 C25.92046875 44.26738281 27.0909375 44.22226562 28.296875 44.17578125 C29.18890625 44.11777344 30.0809375 44.05976562 31 44 C29.20764099 39.85256461 26.46510077 36.44793801 23.75 32.875 C23.23074951 32.18792969 22.71149902 31.50085938 22.17651367 30.79296875 C20.45682467 28.52415034 18.72978673 26.26112852 17 24 C16.05084717 22.75911621 16.05084717 22.75911621 15.08251953 21.49316406 C13.16428855 18.99145718 11.23989255 16.49465356 9.3125 14 C8.70051758 13.2044873 8.08853516 12.40897461 7.45800781 11.58935547 C6.89049805 10.85861816 6.32298828 10.12788086 5.73828125 9.375 C5.23337158 8.72273438 4.72846191 8.07046875 4.20825195 7.3984375 C3.80952881 6.93695313 3.41080566 6.47546875 3 6 C2.67 6 2.34 6 2 6 Z " fill="#5756FF" transform="translate(6,12)"/>
<path d="M0 0 C0.99 0 1.98 0 3 0 C3.11614929 4.0830942 3.18723457 8.16576377 3.25 12.25 C3.30027344 13.98830078 3.30027344 13.98830078 3.3515625 15.76171875 C3.36445312 16.87675781 3.37734375 17.99179687 3.390625 19.140625 C3.41157227 20.16704102 3.43251953 21.19345703 3.45410156 22.25097656 C2.87401102 25.7627075 1.84609581 26.91155113 -1 29 C-3.19824219 29.45410156 -3.19824219 29.45410156 -5.546875 29.390625 C-6.39121094 29.37773438 -7.23554687 29.36484375 -8.10546875 29.3515625 C-8.97816406 29.31804688 -9.85085937 29.28453125 -10.75 29.25 C-11.63816406 29.23195313 -12.52632812 29.21390625 -13.44140625 29.1953125 C-15.62870848 29.14827374 -17.81379816 29.08257009 -20 29 C-18.3890992 23.74118837 -15.03702184 19.877889 -11.6875 15.625 C-10.54450421 14.15968717 -9.40256383 12.69355043 -8.26171875 11.2265625 C-7.70919434 10.52176758 -7.15666992 9.81697266 -6.58740234 9.09082031 C-5.06970255 7.09180754 -3.66849462 5.04392005 -2.26953125 2.9609375 C-1.52058594 1.98382813 -0.77164063 1.00671875 0 0 Z M0 5 C-1.98025759 7.32777632 -3.9065492 9.67499847 -5.8125 12.0625 C-6.34681641 12.71927734 -6.88113281 13.37605469 -7.43164062 14.05273438 C-10.74338838 18.1873272 -13.49317582 22.3323298 -16 27 C-13.73020335 27.10794277 -11.45894804 27.18556176 -9.1875 27.25 C-7.92292969 27.29640625 -6.65835938 27.3428125 -5.35546875 27.390625 C-2.05277002 27.28897974 -2.05277002 27.28897974 -0.0625 25.5625 C1.56029428 21.64870202 1.31510031 17.93790758 1.1875 13.75 C1.17396484 12.90953125 1.16042969 12.0690625 1.14648438 11.203125 C1.11123464 9.13514062 1.0574302 7.06748729 1 5 C0.67 5 0.34 5 0 5 Z " fill="#6C49FF" transform="translate(55,14)"/>
<path d="M0 0 C2.48334342 2.33283776 4.62245109 4.39407001 6.43359375 7.30078125 C9.01219458 11.33265836 10.54072286 13.65011484 15.33984375 14.80078125 C18.5520919 15.03446271 21.77943439 15.03320171 25 15 C22.36 11.37 19.72 7.74 17 4 C17.33 3.34 17.66 2.68 18 2 C18.66 2 19.32 2 20 2 C21.6354808 3.90412475 23.13794613 5.79800671 24.625 7.8125 C25.25535156 8.63331055 25.25535156 8.63331055 25.8984375 9.47070312 C29 13.62458147 29 13.62458147 29 17 C13.15730893 19.2372001 13.15730893 19.2372001 7.92236328 15.52783203 C3.91959992 11.49979471 0.89866022 6.86002911 -2 2 C-1.34 1.34 -0.68 0.68 0 0 Z " fill="#B52EFF" transform="translate(12,41)"/>
<path d="M0 0 C0.33 0 0.66 0 1 0 C1 4.62 1 9.24 1 14 C-2.63 14 -6.26 14 -10 14 C-7.23315028 8.78555245 -4.16501855 4.21628031 0 0 Z " fill="#ADB6FF" transform="translate(55,19)"/>
<path d="M0 0 C0.99 0.33 1.98 0.66 3 1 C-0.9017919 7.25355688 -5.26725781 13.17027246 -9.6875 19.0625 C-10.54347778 20.22446899 -10.54347778 20.22446899 -11.41674805 21.40991211 C-11.96371338 22.13186768 -12.51067871 22.85382324 -13.07421875 23.59765625 C-13.56494873 24.25258057 -14.05567871 24.90750488 -14.5612793 25.58227539 C-16 27 -16 27 -19 27 C-17.68689121 24.21209221 -16.22085655 21.80576905 -14.35546875 19.35546875 C-13.84306641 18.67806641 -13.33066406 18.00066406 -12.80273438 17.30273438 C-12.26970703 16.60470703 -11.73667969 15.90667969 -11.1875 15.1875 C-7.38073143 10.1761174 -3.63393524 5.13855907 0 0 Z " fill="#7A4AFF" transform="translate(55,14)"/>
<path d="M0 0 C0.99 0.33 1.98 0.66 3 1 C2.06981474 2.46300982 1.13055973 3.92025579 0.1875 5.375 C-0.33457031 6.18710937 -0.85664062 6.99921875 -1.39453125 7.8359375 C-3 10 -3 10 -6 12 C-6 7.62548685 -5.59622397 6.99527997 -3 3.75 C-2.443125 3.04359375 -1.88625 2.3371875 -1.3125 1.609375 C-0.879375 1.07828125 -0.44625 0.5471875 0 0 Z " fill="#3661FF" transform="translate(55,14)"/>
<path d="M0 0 C0.66 0 1.32 0 2 0 C1.38722388 2.96175123 0.74627478 4.38058783 -1 7 C-3.125 7.6875 -3.125 7.6875 -5 8 C-3.63055898 5.05043472 -2.12169591 2.47531189 0 0 Z " fill="#5D56FF" transform="translate(47,25)"/>
<path d="M0 0 C0.33 0 0.66 0 1 0 C1 1.98 1 3.96 1 6 C-0.175625 6.4640625 -0.175625 6.4640625 -1.375 6.9375 C-3.92330128 7.92875038 -3.92330128 7.92875038 -6 9 C-4.47300326 5.56425733 -2.44973747 2.84485642 0 0 Z " fill="#8DB7FF" transform="translate(55,19)"/>
<path d="M0 0 C1.65 1.65 3.3 3.3 5 5 C3.68 5.33 2.36 5.66 1 6 C0.01 4.35 -0.98 2.7 -2 1 C-1.34 0.67 -0.68 0.34 0 0 Z " fill="#923AFF" transform="translate(12,41)"/>
</svg>
