<?xml version="1.0" encoding="UTF-8"?>
<svg version="1.1" xmlns="http://www.w3.org/2000/svg" width="64" height="64">
<path d="M0 0 C5.47193383 3.8836588 10.59979777 9.69010187 11.96484375 16.39453125 C12.94645242 25.42753687 12.42891108 32.92100842 6.96484375 40.39453125 C2.2051644 45.71949318 -3.11750952 48.96454563 -10.23828125 49.74609375 C-19.43544074 50.12433191 -26.22192165 48.7596062 -33.1328125 42.4921875 C-39.57407385 35.60122823 -40.52117555 29.13883933 -40.3359375 19.8671875 C-39.59016425 11.25689635 -35.82994849 6.60375768 -29.44921875 1.0234375 C-21.21727194 -4.53112855 -8.71283537 -4.59168047 0 0 Z M-21.03515625 0.39453125 C-17.77592508 2.56735203 -15.91242056 3.15714772 -12.03515625 3.39453125 C-10.71515625 2.40453125 -9.39515625 1.41453125 -8.03515625 0.39453125 C-12.32515625 0.39453125 -16.61515625 0.39453125 -21.03515625 0.39453125 Z M-30.03515625 6.39453125 C-35.10010994 11.70655585 -37.32271154 16.02725176 -37.28515625 23.51953125 C-37.2903125 24.55335937 -37.29546875 25.5871875 -37.30078125 26.65234375 C-37.23192007 29.61060402 -37.23192007 29.61060402 -35.03515625 32.39453125 C-34.5040625 31.44191406 -33.97296875 30.48929688 -33.42578125 29.5078125 C-32.71247394 28.24075346 -31.99891909 26.97383374 -31.28515625 25.70703125 C-30.93710937 25.08119141 -30.5890625 24.45535156 -30.23046875 23.81054688 C-28.55729957 20.85151619 -26.90490598 18.232447 -24.765625 15.5703125 C-22.80098291 13.58036109 -22.80098291 13.58036109 -23.09765625 11.26953125 C-24.16550131 9.13384113 -25.14027589 7.85213153 -27.03515625 6.39453125 C-28.02515625 6.39453125 -29.01515625 6.39453125 -30.03515625 6.39453125 Z M-3.28515625 8.14453125 C-5.26914782 10.16104617 -5.26914782 10.16104617 -4.8515625 12.203125 C-3.8156833 14.98364286 -2.35787545 17.23144245 -0.72265625 19.70703125 C1.98929156 23.86981533 4.55258925 28.05247315 6.96484375 32.39453125 C10.09120633 27.70498739 9.54168385 22.88493706 8.96484375 17.39453125 C7.56458801 13.04891 5.51286581 9.33483165 1.96484375 6.39453125 C-1.11555324 6.08756094 -1.11555324 6.08756094 -3.28515625 8.14453125 Z M-20.79296875 24.10546875 C-24.73746441 28.13242773 -27.8728387 32.74356953 -31.03515625 37.39453125 C-29.21687712 41.54438361 -26.9390776 43.08404718 -23.03515625 45.39453125 C-16.78177712 47.47899096 -9.45208752 47.49394759 -3.47265625 44.58203125 C-0.93401156 43.15711455 0.96996297 41.51068137 2.96484375 39.39453125 C0.12780317 31.28870103 -6.0978605 24.3497425 -13.03515625 19.39453125 C-16.43201748 19.39453125 -18.34352655 21.92519602 -20.79296875 24.10546875 Z " fill="#A1BAFF" transform="translate(46.03515625,8.60546875)"/>
<path d="M0 0 C5.47193383 3.8836588 10.59979777 9.69010187 11.96484375 16.39453125 C12.94645242 25.42753687 12.42891108 32.92100842 6.96484375 40.39453125 C2.2051644 45.71949318 -3.11750952 48.96454563 -10.23828125 49.74609375 C-19.43544074 50.12433191 -26.22192165 48.7596062 -33.1328125 42.4921875 C-39.57407385 35.60122823 -40.52117555 29.13883933 -40.3359375 19.8671875 C-39.59016425 11.25689635 -35.82994849 6.60375768 -29.44921875 1.0234375 C-21.21727194 -4.53112855 -8.71283537 -4.59168047 0 0 Z M-29.9375 5.421875 C-36.32951431 13.27790895 -37.82182263 19.32520155 -37.03515625 29.39453125 C-36.01088453 35.98549712 -32.63357516 39.07267536 -27.38671875 42.94921875 C-21.08589881 46.82181572 -15.30200008 47.15995953 -8.03515625 46.39453125 C-5.03153409 45.46995538 -2.62323108 44.16044361 -0.03515625 42.39453125 C0.53074219 42.03230469 1.09664062 41.67007813 1.6796875 41.296875 C6.10224016 38.10701428 7.92834126 34.594176 8.96484375 29.39453125 C9.79629976 21.76771872 9.33104929 15.79352757 4.96484375 9.39453125 C4.42150391 8.54568359 4.42150391 8.54568359 3.8671875 7.6796875 C0.76249692 3.37521819 -2.93784675 1.37321467 -8.03515625 0.39453125 C-16.03155585 -0.31713843 -24.05913675 -0.8427462 -29.9375 5.421875 Z " fill="#6848FF" transform="translate(46.03515625,8.60546875)"/>
<path d="M0 0 C0.99 0 1.98 0 3 0 C6.81263869 6.67211771 6.88046126 13.46157451 6 21 C3.43036362 29.53119278 -1.67258192 34.35056036 -9.0625 38.875 C-15.57847336 41.3111522 -23.51526404 41.12152422 -30.05859375 39.015625 C-34.42203646 36.96373031 -37.15034074 35.60447093 -39 31 C-34.23385049 31 -32.81399716 32.3220871 -29 35 C-22.82246439 37.05917854 -15.48033996 37.12986487 -9.5625 34.25 C-8.35681794 33.52959246 -7.16695256 32.78158683 -6 32 C-5.071875 31.4225 -4.14375 30.845 -3.1875 30.25 C2.2499164 24.65722885 2.32988066 18.23298118 2.30078125 10.83203125 C1.98793867 7.8864355 1.14452552 5.71311828 0 3 C0 2.01 0 1.02 0 0 Z " fill="#9935FF" transform="translate(52,18)"/>
<path d="M0 0 C3.14102251 2.10686172 5.46011548 4.39145832 7.91015625 7.28125 C7.91015625 7.94125 7.91015625 8.60125 7.91015625 9.28125 C6.92015625 9.61125 5.93015625 9.94125 4.91015625 10.28125 C4.25015625 9.353125 3.59015625 8.425 2.91015625 7.46875 C-1.01557768 2.85601264 -5.38557072 1.52192696 -11.25 1 C-17.61751613 0.82454605 -22.53644107 1.07261734 -28.08984375 4.28125 C-28.74984375 4.94125 -29.40984375 5.60125 -30.08984375 6.28125 C-29.47706763 3.31949877 -28.83611853 1.90066217 -27.08984375 -0.71875 C-18.68366119 -4.34399226 -8.14513327 -4.26287348 0 0 Z " fill="#2965FF" transform="translate(46.08984375,8.71875)"/>
<path d="M0 0 C4 2 8 4 12 6 C9 8 9 8 6.625 7.875 C3.46501455 6.82167152 1.47754664 5.19439845 -1 3 C-0.67 2.01 -0.34 1.02 0 0 Z " fill="#B928FF" transform="translate(14,48)"/>
</svg>
